<svg xmlns="http://www.w3.org/2000/svg" viewBox="0 0 24 24" width="48" height="48" fill="none">
  <circle cx="12" cy="12" r="10" fill="#f7f6ea"/>
  <path d="M7.5 10.5a7 7 0 006 6l1-1a1 1 0 011 .1l2 1.6a1 1 0 01.2 1.4l-1.2 1.8A2 2 0 0116 21c-9 0-13-8-13-8a2 2 0 01-.1-1.4L4.6 8.8A1 1 0 016 8.6L7.6 9.6a1 1 0 01.9 0l-.9.9z" fill="#ff6b81" opacity="0.95"/>
  <path d="M7.5 10.5a7 7 0 006 6l1-1a1 1 0 011 .1l2 1.6a1 1 0 01.2 1.4l-1.2 1.8A2 2 0 0116 21c-9 0-13-8-13-8a2 2 0 01-.1-1.4L4.6 8.8A1 1 0 016 8.6L7.6 9.6a1 1 0 01.9 0l-.9.9z" fill="#1e88e5" opacity="0.95"/>
  <rect x="9" y="6" width="6" height="2" rx="1" fill="#cfe9ff" opacity="0.7" />
</svg>
